# xmcd
#
# Track frame offsets:
#	150
#	25930
#	52941
#	85398
#	112905
#	131112
#	149921
#	170975
#	199070
#	219341
#
# Disc length: 3312 seconds
#
# Revision: 3
# Processed by: cddbd v1.5.2PL0 Copyright (c) Steve Scherf et al.
# Submitted via: EZCDAudioConverter 8.0.2.1
#
DISCID=970cee0a
DTITLE=Hồng Nhung - Vol 06. Ngày Không Mưa
DYEAR=2001
DGENRE=World Pop
TTITLE0=Phố mùa đông
TTITLE1=Tình yêu ở lại
TTITLE2=Bài hát ru màu đông
TTITLE3=Sao chẳng về với em
TTITLE4=Biển ngày mưa
TTITLE5=Một đêm mưa tháng giêng
TTITLE6=Ngày Không Mưa
TTITLE7=Họa mi hót trong mưa
TTITLE8=Ngày anh về
TTITLE9=Rồi có lúc
EXTD=
EXTT0=
EXTT1=
EXTT2=
EXTT3=
EXTT4=
EXTT5=
EXTT6=
EXTT7=
EXTT8=
EXTT9=
PLAYORDER=
